<svg id="Layer_5" enable-background="new 0 0 64 64" height="512" viewBox="0 0 64 64" width="512" xmlns="http://www.w3.org/2000/svg"><g><path d="m58 10h-18c-1.309 0-2.412.847-2.821 2.018-.06-.005-.118-.018-.179-.018h-8.382l-.618-1.236c-.853-1.705-2.566-2.764-4.472-2.764h-3.056c-3.14 0-5.962 1.744-7.367 4.553l-.497.994c-.513-.918-1.483-1.547-2.608-1.547-1.654 0-3 1.346-3 3v1h-2.618l.724 1.447c.478.956 1.131 1.777 1.895 2.46v6.093h-6.001v30h56v-30h-44v-4h10.528c1.906 0 3.62-1.059 4.472-2.764l.618-1.236h8.382c.061 0 .119-.013.179-.018.409 1.171 1.512 2.018 2.821 2.018h18c2.757 0 5-2.243 5-5s-2.243-5-5-5zm-38 4c.551 0 1 .448 1 1s-.449 1-1 1h-7v-1c0-.352-.072-.686-.184-1zm-11 1c0-.552.449-1 1-1s1 .448 1 1v1h-2zm2 4.82c-1.198-.288-2.278-.917-3.109-1.82h3.109zm44 8.18v13h-4v2h4v11h-52v-11h4v-2h-4v-13h4v3c0 .552-.449 1-1 1h-1v2h1c1.654 0 3-1.346 3-3v-9.769c.631.292 1.303.498 2 .623v12.146c0 1.654 1.346 3 3 3h37v-2h-37c-.551 0-1-.448-1-1v-6zm-27.618-12-1.171 2.342c-.511 1.022-1.54 1.658-2.683 1.658h-10.528v-2h7c1.654 0 3-1.346 3-3s-1.346-3-3-3h-4.109c1.161-1.262 2.804-2 4.582-2h3.056c1.144 0 2.172.636 2.683 1.658l1.17 2.342h9.618v2zm30.618 2h-18c-.551 0-1-.448-1-1v-1-2-1c0-.552.449-1 1-1h18c1.654 0 3 1.346 3 3s-1.346 3-3 3z"/><path d="m43 41h4v2h-4z"/><path d="m19 41h4v2h-4z"/><path d="m11 41h4v2h-4z"/><path d="m35 41h4v2h-4z"/><path d="m27 41h4v2h-4z"/><path d="m47 50h2v2h-2z"/><path d="m51 50h2v2h-2z"/><path d="m43 50h2v2h-2z"/><path d="m39 50h2v2h-2z"/></g></svg>