<?xml version="1.0"?>
<svg xmlns="http://www.w3.org/2000/svg" width="512" height="512" viewBox="0 0 128 128"><g><path d="M121.5,48.79a1.75,1.75,0,0,0,0-3.5h-7.1V31.83h7.1a1.75,1.75,0,0,0,0-3.5h-7.1V15.35a1.75,1.75,0,0,0-1.75-1.75H99.67V6.5a1.75,1.75,0,0,0-3.5,0v7.1H82.71V6.5a1.75,1.75,0,0,0-3.5,0v7.1H65.75V6.5a1.75,1.75,0,0,0-3.5,0v7.1H48.79V6.5a1.75,1.75,0,0,0-3.5,0v7.1H31.83V6.5a1.75,1.75,0,0,0-3.5,0v7.1H15.35a1.75,1.75,0,0,0-1.75,1.75V28.33H6.5a1.75,1.75,0,0,0,0,3.5h7.1V45.29H6.5a1.75,1.75,0,0,0,0,3.5h7.1V62.25H6.5a1.75,1.75,0,0,0,0,3.5h7.1V79.21H6.5a1.75,1.75,0,0,0,0,3.5h7.1V96.17H6.5a1.75,1.75,0,0,0,0,3.5h7.1v12.98a1.75,1.75,0,0,0,1.75,1.75H28.33v7.1a1.75,1.75,0,0,0,3.5,0v-7.1H45.29v7.1a1.75,1.75,0,0,0,3.5,0v-7.1H62.25v7.1a1.75,1.75,0,0,0,3.5,0v-7.1H79.21v7.1a1.75,1.75,0,0,0,3.5,0v-7.1H96.17v7.1a1.75,1.75,0,0,0,3.5,0v-7.1h12.98a1.75,1.75,0,0,0,1.75-1.75V99.67h7.1a1.75,1.75,0,0,0,0-3.5h-7.1V82.71h7.1a1.75,1.75,0,0,0,0-3.5h-7.1V65.75h7.1a1.75,1.75,0,0,0,0-3.5h-7.1V48.79ZM110.9,110.9H17.1V17.1h93.8Z"/><path d="M103.654,22.6H24.346a1.75,1.75,0,0,0-1.75,1.75v79.308a1.75,1.75,0,0,0,1.75,1.75h79.308a1.75,1.75,0,0,0,1.75-1.75V24.346A1.75,1.75,0,0,0,103.654,22.6ZM101.9,101.9H26.1V26.1H101.9Z"/><path d="M46.346,83.4H81.654a1.75,1.75,0,0,0,1.75-1.75V46.346a1.75,1.75,0,0,0-1.75-1.75H46.346a1.75,1.75,0,0,0-1.75,1.75V81.654A1.75,1.75,0,0,0,46.346,83.4ZM48.1,48.1H79.9V79.9H48.1Z"/></g></svg>
